{
	"asset":{
		"version":"2.0",
		"generator":"Maxon Cinema 4D 2026.1.0 (#200000219)"
	},
	"nodes":[{
		"name":"Cube",
		"mesh":0
	}],
	"scenes":[{
		"nodes":[0]
	}],
	"buffers":[{
		"uri":"data:application/octet-stream;base64,",
		"byteLength":121728
	}],
	"meshes":[{
		"name":"Cube",
		"primitives":[{
			"attributes":{
				"POSITION":1,
				"NORMAL":2,
				"TEXCOORD_0":3
			},
			"indices":0
		}]
	}],
	"accessors":[{
		"max":[2843],
		"bufferView":0,
		"type":"SCALAR",
		"componentType":5123,
		"count":15360,
		"byteOffset":0,
		"min":[0]
	},
	{
		"max":[0.5,
		0.5,
		0.5],
		"bufferView":1,
		"type":"VEC3",
		"componentType":5126,
		"count":2844,
		"byteOffset":0,
		"min":[-0.5,
		-0.5,
		-0.5]
	},
	{
		"max":[1.0,
		1.0,
		1.0],
		"bufferView":1,
		"type":"VEC3",
		"componentType":5126,
		"count":2844,
		"byteOffset":12,
		"min":[-1.0,
		-1.0,
		-1.0]
	},
	{
		"max":[1.0,
		1.0],
		"bufferView":1,
		"type":"VEC2",
		"componentType":5126,
		"count":2844,
		"byteOffset":24,
		"min":[0.0,
		0.0]
	}],
	"bufferViews":[{
		"buffer":0,
		"byteOffset":0,
		"byteLength":30720,
		"target":34963
	},
	{
		"buffer":0,
		"byteOffset":30720,
		"byteLength":91008,
		"target":34962,
		"byteStride":32
	}]
}